<svg xmlns="http://www.w3.org/2000/svg" viewBox="0 0 1200 120" preserveAspectRatio="xMidYMax meet">
  <path fill="#D6DADE" d="
    M 0,120
    L 0,90
    L 20,90 L 20,84 L 40,84 L 40,90
    L 52,90 L 52,80 L 72,80 L 72,88
    L 84,88 L 84,76 L 105,76 L 105,84
    L 118,84 L 118,72 L 140,72 L 140,80
    L 155,80 L 155,68 L 178,68 L 178,76
    L 192,76 L 192,65 L 212,65 L 212,74
    L 226,74 L 226,60 L 250,60 L 250,68
    L 265,68 L 265,56 L 290,56 L 290,64
    L 305,64 L 305,52 L 330,52 L 330,60
    L 346,60 L 346,48 L 370,48 L 370,56
    L 386,56 L 386,46 L 406,46
    L 406,48 L 414,48
    L 414,36 L 420,36 L 420,24 L 424,24 L 424,16 L 427,16 L 427,10 L 429,6 L 431,10 L 431,16 L 434,16 L 434,24 L 438,24 L 438,36 L 444,36
    L 444,48 L 452,48
    L 452,42 L 458,42 L 458,30 L 464,30 L 464,18 L 468,18 L 468,10 L 472,10 L 472,5 L 474,2 L 476,5 L 476,10 L 480,10 L 480,18 L 484,18 L 484,28 L 490,28 L 490,40 L 498,40
    L 498,48 L 510,48
    L 510,54 L 525,54 L 525,60 L 542,60 L 542,50 L 556,50
    L 556,44 L 565,44 L 565,36 L 572,36
    L 572,26
    L 580,26 L 580,33 L 586,33 L 586,26
    L 594,26 L 594,33 L 600,33 L 600,26
    L 608,26 L 608,33 L 614,33 L 614,26
    L 622,26 L 622,33 L 628,33 L 628,26
    L 636,26 L 636,33 L 642,33 L 642,26
    L 650,26 L 650,33 L 656,33 L 656,26
    L 664,26
    L 664,36 L 680,38 L 694,44
    L 694,28 L 710,28 L 710,38
    L 722,38 L 722,24 L 740,24 L 740,38
    L 752,38 L 752,44 L 764,44
    L 764,52 L 780,52 L 780,46 L 798,46
    L 798,54 L 816,54 L 816,48 L 834,48
    L 834,56 L 852,56 L 852,50 L 870,50
    L 870,60 L 888,60 L 888,55 L 906,55
    L 906,63 L 924,63 L 924,70 L 942,70
    L 942,65 L 960,65 L 960,72 L 980,72
    L 980,78 L 1000,78
    L 1000,82 L 1020,82 L 1020,88 L 1040,88
    L 1040,82 L 1058,82 L 1058,88 L 1078,88
    L 1078,94 L 1098,94 L 1098,88 L 1118,88
    L 1118,94 L 1140,94 L 1140,90 L 1162,90
    L 1162,96 L 1185,96 L 1185,102 L 1200,102
    L 1200,120 Z
  "/>
</svg>
